<?xml version="1.0" encoding="UTF-8" standalone="no"?>
<!DOCTYPE svg PUBLIC "-//W3C//DTD SVG 1.1//EN"
 "http://www.w3.org/Graphics/SVG/1.1/DTD/svg11.dtd">
<!-- Generated by graphviz version 2.50.0 (0)
 -->
<!-- Pages: 1 -->
<svg width="383pt" height="500pt"
 viewBox="0.00 0.00 383.00 500.00" xmlns="http://www.w3.org/2000/svg" xmlns:xlink="http://www.w3.org/1999/xlink">
<g id="graph0" class="graph" transform="scale(1 1) rotate(0) translate(4 496)">
<polygon fill="white" stroke="transparent" points="-4,4 -4,-496 379,-496 379,4 -4,4"/>
<text text-anchor="middle" x="187.5" y="-468.8" font-family="Calibri" font-size="24.00">Main tree</text>
<g id="clust1" class="cluster">
<title>cluster_legend</title>
<polygon fill="none" stroke="black" stroke-dasharray="5,2" points="269,-8 269,-450 367,-450 367,-8 269,-8"/>
<text text-anchor="middle" x="318" y="-430" font-family="Calibri" font-size="20.00">Legend</text>
</g>
<!-- Root -->
<g id="node1" class="node">
<title>Root</title>
<polygon fill="#001f3f" stroke="black" points="216,-412 144,-412 144,-340 216,-340 216,-412"/>
<text text-anchor="middle" x="180" y="-372.9" font-family="Calibri" font-size="12.00" fill="white">Root</text>
</g>
<!-- Child 1 -->
<g id="node2" class="node">
<title>Child 1</title>
<polygon fill="#0074d9" stroke="black" points="171,-304 99,-304 99,-232 171,-232 171,-304"/>
<text text-anchor="middle" x="135" y="-264.9" font-family="Calibri" font-size="12.00" fill="white">Child 1</text>
</g>
<!-- Root&#45;&gt;Child 1 -->
<g id="edge4" class="edge">
<title>Root&#45;&gt;Child 1</title>
<path fill="none" stroke="black" d="M165.14,-340C160.28,-328.54 154.87,-315.81 150,-304.33"/>
</g>
<!-- Child 2 -->
<g id="node6" class="node">
<title>Child 2</title>
<polygon fill="#0074d9" stroke="black" points="261,-304 189,-304 189,-232 261,-232 261,-304"/>
<text text-anchor="middle" x="225" y="-264.9" font-family="Calibri" font-size="12.00" fill="white">Child 2</text>
</g>
<!-- Root&#45;&gt;Child 2 -->
<g id="edge6" class="edge">
<title>Root&#45;&gt;Child 2</title>
<path fill="none" stroke="black" d="M194.86,-340C199.72,-328.54 205.13,-315.81 210,-304.33"/>
</g>
<!-- Sub&#45;child 1 -->
<g id="node3" class="node">
<title>Sub&#45;child 1</title>
<polygon fill="#7fdbff" stroke="black" points="81,-196 9,-196 9,-124 81,-124 81,-196"/>
<text text-anchor="middle" x="45" y="-156.9" font-family="Calibri" font-size="12.00">Sub&#45;child 1</text>
</g>
<!-- Child 1&#45;&gt;Sub&#45;child 1 -->
<g id="edge2" class="edge">
<title>Child 1&#45;&gt;Sub&#45;child 1</title>
<path fill="none" stroke="black" d="M105.28,-232C95.55,-220.54 84.74,-207.81 75,-196.33"/>
</g>
<!-- Sub&#45;child 2 -->
<g id="node5" class="node">
<title>Sub&#45;child 2</title>
<polygon fill="#7fdbff" stroke="black" points="171,-196 99,-196 99,-124 171,-124 171,-196"/>
<text text-anchor="middle" x="135" y="-156.9" font-family="Calibri" font-size="12.00">Sub&#45;child 2</text>
</g>
<!-- Child 1&#45;&gt;Sub&#45;child 2 -->
<g id="edge3" class="edge">
<title>Child 1&#45;&gt;Sub&#45;child 2</title>
<path fill="none" stroke="black" d="M135,-232C135,-220.54 135,-207.81 135,-196.33"/>
</g>
<!-- Sub&#45;sub&#45;child 1 -->
<g id="node4" class="node">
<title>Sub&#45;sub&#45;child 1</title>
<polygon fill="#dddddd" stroke="black" points="90,-88 0,-88 0,-16 90,-16 90,-88"/>
<text text-anchor="middle" x="45" y="-48.9" font-family="Calibri" font-size="12.00">Sub&#45;sub&#45;child 1</text>
</g>
<!-- Sub&#45;child 1&#45;&gt;Sub&#45;sub&#45;child 1 -->
<g id="edge1" class="edge">
<title>Sub&#45;child 1&#45;&gt;Sub&#45;sub&#45;child 1</title>
<path fill="none" stroke="black" d="M45,-124C45,-112.54 45,-99.81 45,-88.33"/>
</g>
<!-- Sub&#45;child 3 -->
<g id="node7" class="node">
<title>Sub&#45;child 3</title>
<polygon fill="#7fdbff" stroke="black" points="261,-196 189,-196 189,-124 261,-124 261,-196"/>
<text text-anchor="middle" x="225" y="-156.9" font-family="Calibri" font-size="12.00">Sub&#45;child 3</text>
</g>
<!-- Child 2&#45;&gt;Sub&#45;child 3 -->
<g id="edge5" class="edge">
<title>Child 2&#45;&gt;Sub&#45;child 3</title>
<path fill="none" stroke="black" d="M225,-232C225,-220.54 225,-207.81 225,-196.33"/>
</g>
<!-- Legend_Root -->
<g id="node8" class="node">
<title>Legend_Root</title>
<polygon fill="#001f3f" stroke="black" points="354,-412 282,-412 282,-340 354,-340 354,-412"/>
<text text-anchor="middle" x="318" y="-372.9" font-family="Calibri" font-size="12.00" fill="white">Root</text>
</g>
<!-- Legend_Child -->
<g id="node9" class="node">
<title>Legend_Child</title>
<polygon fill="#0074d9" stroke="black" points="354,-304 282,-304 282,-232 354,-232 354,-304"/>
<text text-anchor="middle" x="318" y="-264.9" font-family="Calibri" font-size="12.00" fill="white">Child</text>
</g>
<!-- Legend_Root&#45;&gt;Legend_Child -->
<!-- Legend_SubChild -->
<g id="node10" class="node">
<title>Legend_SubChild</title>
<polygon fill="#7fdbff" stroke="black" points="354,-196 282,-196 282,-124 354,-124 354,-196"/>
<text text-anchor="middle" x="318" y="-156.9" font-family="Calibri" font-size="12.00">Sub&#45;child</text>
</g>
<!-- Legend_Child&#45;&gt;Legend_SubChild -->
<!-- Legend_SubSubChild -->
<g id="node11" class="node">
<title>Legend_SubSubChild</title>
<polygon fill="#dddddd" stroke="black" points="358.5,-88 277.5,-88 277.5,-16 358.5,-16 358.5,-88"/>
<text text-anchor="middle" x="318" y="-48.9" font-family="Calibri" font-size="12.00">Sub&#45;sub&#45;child</text>
</g>
<!-- Legend_SubChild&#45;&gt;Legend_SubSubChild -->
</g>
</svg>
