<?xml version="1.0" encoding="UTF-8" standalone="no"?>
<!DOCTYPE svg PUBLIC "-//W3C//DTD SVG 1.1//EN"
 "http://www.w3.org/Graphics/SVG/1.1/DTD/svg11.dtd">
<!-- Generated by graphviz version 2.50.0 (0)
 -->
<!-- Pages: 1 -->
<svg width="269pt" height="404pt"
 viewBox="0.00 0.00 269.00 404.00" xmlns="http://www.w3.org/2000/svg" xmlns:xlink="http://www.w3.org/1999/xlink">
<g id="graph0" class="graph" transform="scale(1 1) rotate(0) translate(4 400)">
<polygon fill="white" stroke="transparent" points="-4,4 -4,-400 265,-400 265,4 -4,4"/>
<!-- Root -->
<g id="node1" class="node">
<title>Root</title>
<polygon fill="lightblue" stroke="lightblue" points="216,-396 144,-396 144,-324 216,-324 216,-396"/>
<text text-anchor="middle" x="180" y="-356.9" font-family="Calibri" font-size="12.00">Root</text>
</g>
<!-- Child 1 -->
<g id="node2" class="node">
<title>Child 1</title>
<polygon fill="lightblue" stroke="lightblue" points="171,-288 99,-288 99,-216 171,-216 171,-288"/>
<text text-anchor="middle" x="135" y="-248.9" font-family="Calibri" font-size="12.00">Child 1</text>
</g>
<!-- Root&#45;&gt;Child 1 -->
<g id="edge1" class="edge">
<title>Root&#45;&gt;Child 1</title>
<path fill="none" stroke="black" d="M165.14,-324C161.57,-315.58 157.7,-306.48 153.97,-297.69"/>
<polygon fill="black" stroke="black" points="157.13,-296.16 150,-288.33 150.68,-298.9 157.13,-296.16"/>
</g>
<!-- Child 2 -->
<g id="node3" class="node">
<title>Child 2</title>
<polygon fill="lightblue" stroke="lightblue" points="261,-288 189,-288 189,-216 261,-216 261,-288"/>
<text text-anchor="middle" x="225" y="-248.9" font-family="Calibri" font-size="12.00">Child 2</text>
</g>
<!-- Root&#45;&gt;Child 2 -->
<g id="edge2" class="edge">
<title>Root&#45;&gt;Child 2</title>
<path fill="none" stroke="black" d="M194.86,-324C198.43,-315.58 202.3,-306.48 206.03,-297.69"/>
<polygon fill="black" stroke="black" points="209.32,-298.9 210,-288.33 202.87,-296.16 209.32,-298.9"/>
</g>
<!-- Sub&#45;child 1 -->
<g id="node4" class="node">
<title>Sub&#45;child 1</title>
<polygon fill="lightblue" stroke="lightblue" points="81,-180 9,-180 9,-108 81,-108 81,-180"/>
<text text-anchor="middle" x="45" y="-140.9" font-family="Calibri" font-size="12.00">Sub&#45;child 1</text>
</g>
<!-- Child 1&#45;&gt;Sub&#45;child 1 -->
<g id="edge3" class="edge">
<title>Child 1&#45;&gt;Sub&#45;child 1</title>
<path fill="none" stroke="black" d="M105.28,-216C97.68,-207.05 89.42,-197.32 81.52,-188.02"/>
<polygon fill="black" stroke="black" points="84.14,-185.69 75,-180.33 78.8,-190.22 84.14,-185.69"/>
</g>
<!-- Sub&#45;child 2 -->
<g id="node5" class="node">
<title>Sub&#45;child 2</title>
<polygon fill="lightblue" stroke="lightblue" points="171,-180 99,-180 99,-108 171,-108 171,-180"/>
<text text-anchor="middle" x="135" y="-140.9" font-family="Calibri" font-size="12.00">Sub&#45;child 2</text>
</g>
<!-- Child 1&#45;&gt;Sub&#45;child 2 -->
<g id="edge4" class="edge">
<title>Child 1&#45;&gt;Sub&#45;child 2</title>
<path fill="none" stroke="black" d="M135,-216C135,-207.85 135,-199.06 135,-190.54"/>
<polygon fill="black" stroke="black" points="138.5,-190.33 135,-180.33 131.5,-190.33 138.5,-190.33"/>
</g>
<!-- Sub&#45;child 3 -->
<g id="node6" class="node">
<title>Sub&#45;child 3</title>
<polygon fill="lightblue" stroke="lightblue" points="261,-180 189,-180 189,-108 261,-108 261,-180"/>
<text text-anchor="middle" x="225" y="-140.9" font-family="Calibri" font-size="12.00">Sub&#45;child 3</text>
</g>
<!-- Child 2&#45;&gt;Sub&#45;child 3 -->
<g id="edge5" class="edge">
<title>Child 2&#45;&gt;Sub&#45;child 3</title>
<path fill="none" stroke="black" d="M225,-216C225,-207.85 225,-199.06 225,-190.54"/>
<polygon fill="black" stroke="black" points="228.5,-190.33 225,-180.33 221.5,-190.33 228.5,-190.33"/>
</g>
<!-- Sub&#45;sub&#45;child 1 -->
<g id="node7" class="node">
<title>Sub&#45;sub&#45;child 1</title>
<polygon fill="lightblue" stroke="lightblue" points="90,-72 0,-72 0,0 90,0 90,-72"/>
<text text-anchor="middle" x="45" y="-32.9" font-family="Calibri" font-size="12.00">Sub&#45;sub&#45;child 1</text>
</g>
<!-- Sub&#45;child 1&#45;&gt;Sub&#45;sub&#45;child 1 -->
<g id="edge6" class="edge">
<title>Sub&#45;child 1&#45;&gt;Sub&#45;sub&#45;child 1</title>
<path fill="none" stroke="black" d="M45,-108C45,-99.85 45,-91.06 45,-82.54"/>
<polygon fill="black" stroke="black" points="48.5,-82.33 45,-72.33 41.5,-82.33 48.5,-82.33"/>
</g>
</g>
</svg>
