<?xml version="1.0" encoding="UTF-8" standalone="no"?>
<!DOCTYPE svg PUBLIC "-//W3C//DTD SVG 1.1//EN"
 "http://www.w3.org/Graphics/SVG/1.1/DTD/svg11.dtd">
<!-- Generated by graphviz version 2.50.0 (0)
 -->
<!-- Pages: 1 -->
<svg width="2439pt" height="500pt"
 viewBox="0.00 0.00 2438.50 500.00" xmlns="http://www.w3.org/2000/svg" xmlns:xlink="http://www.w3.org/1999/xlink">
<g id="graph0" class="graph" transform="scale(1 1) rotate(0) translate(4 496)">
<polygon fill="white" stroke="transparent" points="-4,4 -4,-496 2434.5,-496 2434.5,4 -4,4"/>
<text text-anchor="middle" x="1215.25" y="-468.8" font-family="Calibri" font-size="24.00">market_operation_tree</text>
<g id="clust1" class="cluster">
<title>cluster_legend</title>
<polygon fill="none" stroke="black" points="2324.5,-8 2324.5,-450 2422.5,-450 2422.5,-8 2324.5,-8"/>
<text text-anchor="middle" x="2373.5" y="-430" font-family="Calibri" font-size="20.00">Legend</text>
</g>
<!-- Root -->
<g id="node1" class="node">
<title>Root</title>
<polygon fill="#001f3f" stroke="black" points="1467.5,-412 1365.5,-412 1365.5,-340 1467.5,-340 1467.5,-412"/>
<text text-anchor="middle" x="1416.5" y="-372.9" font-family="Calibri" font-size="12.00" fill="white">Market operation</text>
</g>
<!-- Remuneration_scheme -->
<g id="node2" class="node">
<title>Remuneration_scheme</title>
<polygon fill="#0074d9" stroke="black" points="446,-304 321,-304 321,-232 446,-232 446,-304"/>
<text text-anchor="middle" x="383.5" y="-264.9" font-family="Calibri" font-size="12.00" fill="white">Remuneration scheme</text>
</g>
<!-- Root&#45;&gt;Remuneration_scheme -->
<g id="edge7" class="edge">
<title>Root&#45;&gt;Remuneration_scheme</title>
<path fill="none" stroke="black" d="M1365.27,-388C1156.84,-388 383.5,-388 383.5,-388 383.5,-388 383.5,-339.35 383.5,-304"/>
</g>
<!-- Remuneration_of_product_attribute -->
<g id="node9" class="node">
<title>Remuneration_of_product_attribute</title>
<polygon fill="#0074d9" stroke="black" points="1193.5,-304 991.5,-304 991.5,-232 1193.5,-232 1193.5,-304"/>
<text text-anchor="middle" x="1092.5" y="-264.9" font-family="Calibri" font-size="12.00" fill="white">Remuneration of the product attribute</text>
</g>
<!-- Root&#45;&gt;Remuneration_of_product_attribute -->
<g id="edge11" class="edge">
<title>Root&#45;&gt;Remuneration_of_product_attribute</title>
<path fill="none" stroke="black" d="M1365.16,-364C1273.8,-364 1092.5,-364 1092.5,-364 1092.5,-364 1092.5,-331.26 1092.5,-304.02"/>
</g>
<!-- Market_clearing_type -->
<g id="node13" class="node">
<title>Market_clearing_type</title>
<polygon fill="#0074d9" stroke="black" points="1476.5,-304 1356.5,-304 1356.5,-232 1476.5,-232 1476.5,-304"/>
<text text-anchor="middle" x="1416.5" y="-264.9" font-family="Calibri" font-size="12.00" fill="white">Market&#45;clearing type</text>
</g>
<!-- Root&#45;&gt;Market_clearing_type -->
<g id="edge14" class="edge">
<title>Root&#45;&gt;Market_clearing_type</title>
<path fill="none" stroke="black" d="M1416.5,-339.74C1416.5,-328.34 1416.5,-315.76 1416.5,-304.35"/>
</g>
<!-- Procurement_frequency -->
<g id="node16" class="node">
<title>Procurement_frequency</title>
<polygon fill="#0074d9" stroke="black" points="1807.5,-304 1677.5,-304 1677.5,-232 1807.5,-232 1807.5,-304"/>
<text text-anchor="middle" x="1742.5" y="-264.9" font-family="Calibri" font-size="12.00" fill="white">Procurement frequency</text>
</g>
<!-- Root&#45;&gt;Procurement_frequency -->
<g id="edge20" class="edge">
<title>Root&#45;&gt;Procurement_frequency</title>
<path fill="none" stroke="black" d="M1467.8,-364C1559.6,-364 1742.5,-364 1742.5,-364 1742.5,-364 1742.5,-331.26 1742.5,-304.02"/>
</g>
<!-- Bid_properties -->
<g id="node22" class="node">
<title>Bid_properties</title>
<polygon fill="#0074d9" stroke="black" points="2116,-304 2031,-304 2031,-232 2116,-232 2116,-304"/>
<text text-anchor="middle" x="2073.5" y="-264.9" font-family="Calibri" font-size="12.00" fill="white">Bid properties</text>
</g>
<!-- Root&#45;&gt;Bid_properties -->
<g id="edge26" class="edge">
<title>Root&#45;&gt;Bid_properties</title>
<path fill="none" stroke="black" d="M1467.51,-388C1621.87,-388 2073.5,-388 2073.5,-388 2073.5,-388 2073.5,-339.35 2073.5,-304"/>
</g>
<!-- No_remuneration -->
<g id="node3" class="node">
<title>No_remuneration</title>
<polygon fill="#7fdbff" stroke="black" points="99,-196 0,-196 0,-124 99,-124 99,-196"/>
<text text-anchor="middle" x="49.5" y="-156.9" font-family="Calibri" font-size="12.00">No remuneration</text>
</g>
<!-- Remuneration_scheme&#45;&gt;No_remuneration -->
<g id="edge1" class="edge">
<title>Remuneration_scheme&#45;&gt;No_remuneration</title>
<path fill="none" stroke="black" d="M320.68,-286C223.93,-286 49.5,-286 49.5,-286 49.5,-286 49.5,-233.34 49.5,-196.11"/>
</g>
<!-- Negotiated_price -->
<g id="node4" class="node">
<title>Negotiated_price</title>
<polygon fill="#7fdbff" stroke="black" points="215.5,-196 117.5,-196 117.5,-124 215.5,-124 215.5,-196"/>
<text text-anchor="middle" x="166.5" y="-156.9" font-family="Calibri" font-size="12.00">Negotiated price</text>
</g>
<!-- Remuneration_scheme&#45;&gt;Negotiated_price -->
<g id="edge2" class="edge">
<title>Remuneration_scheme&#45;&gt;Negotiated_price</title>
<path fill="none" stroke="black" d="M320.73,-268C256.65,-268 166.5,-268 166.5,-268 166.5,-268 166.5,-227.64 166.5,-196.26"/>
</g>
<!-- Pay_as_bid -->
<g id="node5" class="node">
<title>Pay_as_bid</title>
<polygon fill="#7fdbff" stroke="black" points="305.5,-196 233.5,-196 233.5,-124 305.5,-124 305.5,-196"/>
<text text-anchor="middle" x="269.5" y="-156.9" font-family="Calibri" font-size="12.00">Pay&#45;as&#45;bid</text>
</g>
<!-- Remuneration_scheme&#45;&gt;Pay_as_bid -->
<g id="edge3" class="edge">
<title>Remuneration_scheme&#45;&gt;Pay_as_bid</title>
<path fill="none" stroke="black" d="M320.83,-250C294.34,-250 269.5,-250 269.5,-250 269.5,-250 269.5,-221.13 269.5,-196.09"/>
</g>
<!-- Uniform_pay_as_clear -->
<g id="node6" class="node">
<title>Uniform_pay_as_clear</title>
<polygon fill="#7fdbff" stroke="black" points="443,-196 324,-196 324,-124 443,-124 443,-196"/>
<text text-anchor="middle" x="383.5" y="-156.9" font-family="Calibri" font-size="12.00">Uniform pay&#45;as&#45;clear</text>
</g>
<!-- Remuneration_scheme&#45;&gt;Uniform_pay_as_clear -->
<g id="edge4" class="edge">
<title>Remuneration_scheme&#45;&gt;Uniform_pay_as_clear</title>
<path fill="none" stroke="black" d="M383.5,-231.74C383.5,-220.34 383.5,-207.76 383.5,-196.35"/>
</g>
<!-- Non_uniform_pay_as_clear -->
<g id="node7" class="node">
<title>Non_uniform_pay_as_clear</title>
<polygon fill="#7fdbff" stroke="black" points="697.5,-196 461.5,-196 461.5,-124 697.5,-124 697.5,-196"/>
<text text-anchor="middle" x="579.5" y="-156.9" font-family="Calibri" font-size="12.00">Non&#45;uniform pay&#45;as&#45;clear (i.e., nodal pricing)</text>
</g>
<!-- Remuneration_scheme&#45;&gt;Non_uniform_pay_as_clear -->
<g id="edge5" class="edge">
<title>Remuneration_scheme&#45;&gt;Non_uniform_pay_as_clear</title>
<path fill="none" stroke="black" d="M446.05,-268C503.42,-268 579.5,-268 579.5,-268 579.5,-268 579.5,-227.64 579.5,-196.26"/>
</g>
<!-- Cost_based_remuneration -->
<g id="node8" class="node">
<title>Cost_based_remuneration</title>
<polygon fill="#7fdbff" stroke="black" points="855,-196 716,-196 716,-124 855,-124 855,-196"/>
<text text-anchor="middle" x="785.5" y="-156.9" font-family="Calibri" font-size="12.00">Cost&#45;based remuneration</text>
</g>
<!-- Remuneration_scheme&#45;&gt;Cost_based_remuneration -->
<g id="edge6" class="edge">
<title>Remuneration_scheme&#45;&gt;Cost_based_remuneration</title>
<path fill="none" stroke="black" d="M446.31,-286C559.38,-286 785.5,-286 785.5,-286 785.5,-286 785.5,-233.34 785.5,-196.11"/>
</g>
<!-- Availability -->
<g id="node10" class="node">
<title>Availability</title>
<polygon fill="#7fdbff" stroke="black" points="945.5,-196 873.5,-196 873.5,-124 945.5,-124 945.5,-196"/>
<text text-anchor="middle" x="909.5" y="-156.9" font-family="Calibri" font-size="12.00">Availability</text>
</g>
<!-- Remuneration_of_product_attribute&#45;&gt;Availability -->
<g id="edge8" class="edge">
<title>Remuneration_of_product_attribute&#45;&gt;Availability</title>
<path fill="none" stroke="black" d="M991.37,-250C949.04,-250 909.5,-250 909.5,-250 909.5,-250 909.5,-221.13 909.5,-196.09"/>
</g>
<!-- Activation -->
<g id="node11" class="node">
<title>Activation</title>
<polygon fill="#7fdbff" stroke="black" points="1035.5,-196 963.5,-196 963.5,-124 1035.5,-124 1035.5,-196"/>
<text text-anchor="middle" x="999.5" y="-156.9" font-family="Calibri" font-size="12.00">Activation</text>
</g>
<!-- Remuneration_of_product_attribute&#45;&gt;Activation -->
<g id="edge9" class="edge">
<title>Remuneration_of_product_attribute&#45;&gt;Activation</title>
<path fill="none" stroke="black" d="M1013.5,-231.74C1013.5,-220.34 1013.5,-207.76 1013.5,-196.35"/>
</g>
<!-- Availability_and_Activation -->
<g id="node12" class="node">
<title>Availability_and_Activation</title>
<polygon fill="#7fdbff" stroke="black" points="1317.5,-196 1053.5,-196 1053.5,-124 1317.5,-124 1317.5,-196"/>
<text text-anchor="middle" x="1185.5" y="-163.4" font-family="Calibri" font-size="12.00">Availability and Activation</text>
<text text-anchor="middle" x="1185.5" y="-150.4" font-family="Calibri" font-size="12.00">For: Active power, Reactive power, Apparent power</text>
</g>
<!-- Remuneration_of_product_attribute&#45;&gt;Availability_and_Activation -->
<g id="edge10" class="edge">
<title>Remuneration_of_product_attribute&#45;&gt;Availability_and_Activation</title>
<path fill="none" stroke="black" d="M1123.5,-231.74C1123.5,-220.34 1123.5,-207.76 1123.5,-196.35"/>
</g>
<!-- Continuous -->
<g id="node14" class="node">
<title>Continuous</title>
<polygon fill="#7fdbff" stroke="black" points="1407.5,-196 1335.5,-196 1335.5,-124 1407.5,-124 1407.5,-196"/>
<text text-anchor="middle" x="1371.5" y="-156.9" font-family="Calibri" font-size="12.00">Continuous</text>
</g>
<!-- Market_clearing_type&#45;&gt;Continuous -->
<g id="edge12" class="edge">
<title>Market_clearing_type&#45;&gt;Continuous</title>
<path fill="none" stroke="black" d="M1382,-231.74C1382,-220.34 1382,-207.76 1382,-196.35"/>
</g>
<!-- Discrete -->
<g id="node15" class="node">
<title>Discrete</title>
<polygon fill="#7fdbff" stroke="black" points="1497.5,-196 1425.5,-196 1425.5,-124 1497.5,-124 1497.5,-196"/>
<text text-anchor="middle" x="1461.5" y="-156.9" font-family="Calibri" font-size="12.00">Discrete</text>
</g>
<!-- Market_clearing_type&#45;&gt;Discrete -->
<g id="edge13" class="edge">
<title>Market_clearing_type&#45;&gt;Discrete</title>
<path fill="none" stroke="black" d="M1451,-231.74C1451,-220.34 1451,-207.76 1451,-196.35"/>
</g>
<!-- Event_based_on_SO_call -->
<g id="node17" class="node">
<title>Event_based_on_SO_call</title>
<polygon fill="#7fdbff" stroke="black" points="1643,-196 1516,-196 1516,-124 1643,-124 1643,-196"/>
<text text-anchor="middle" x="1579.5" y="-156.9" font-family="Calibri" font-size="12.00">Event&#45;based on SO call</text>
</g>
<!-- Procurement_frequency&#45;&gt;Event_based_on_SO_call -->
<g id="edge15" class="edge">
<title>Procurement_frequency&#45;&gt;Event_based_on_SO_call</title>
<path fill="none" stroke="black" d="M1677.14,-268C1631.79,-268 1579.5,-268 1579.5,-268 1579.5,-268 1579.5,-227.64 1579.5,-196.26"/>
</g>
<!-- Daily -->
<g id="node18" class="node">
<title>Daily</title>
<polygon fill="#7fdbff" stroke="black" points="1733.5,-196 1661.5,-196 1661.5,-124 1733.5,-124 1733.5,-196"/>
<text text-anchor="middle" x="1697.5" y="-156.9" font-family="Calibri" font-size="12.00">Daily</text>
</g>
<!-- Procurement_frequency&#45;&gt;Daily -->
<g id="edge16" class="edge">
<title>Procurement_frequency&#45;&gt;Daily</title>
<path fill="none" stroke="black" d="M1705.5,-231.74C1705.5,-220.34 1705.5,-207.76 1705.5,-196.35"/>
</g>
<!-- Weekly -->
<g id="node19" class="node">
<title>Weekly</title>
<polygon fill="#7fdbff" stroke="black" points="1823.5,-196 1751.5,-196 1751.5,-124 1823.5,-124 1823.5,-196"/>
<text text-anchor="middle" x="1787.5" y="-156.9" font-family="Calibri" font-size="12.00">Weekly</text>
</g>
<!-- Procurement_frequency&#45;&gt;Weekly -->
<g id="edge17" class="edge">
<title>Procurement_frequency&#45;&gt;Weekly</title>
<path fill="none" stroke="black" d="M1779.5,-231.74C1779.5,-220.34 1779.5,-207.76 1779.5,-196.35"/>
</g>
<!-- Monthly -->
<g id="node20" class="node">
<title>Monthly</title>
<polygon fill="#7fdbff" stroke="black" points="1913.5,-196 1841.5,-196 1841.5,-124 1913.5,-124 1913.5,-196"/>
<text text-anchor="middle" x="1877.5" y="-156.9" font-family="Calibri" font-size="12.00">Monthly</text>
</g>
<!-- Procurement_frequency&#45;&gt;Monthly -->
<g id="edge18" class="edge">
<title>Procurement_frequency&#45;&gt;Monthly</title>
<path fill="none" stroke="black" d="M1807.63,-256C1842.15,-256 1877.5,-256 1877.5,-256 1877.5,-256 1877.5,-223.26 1877.5,-196.02"/>
</g>
<!-- Other -->
<g id="node21" class="node">
<title>Other</title>
<polygon fill="#7fdbff" stroke="black" points="2003.5,-196 1931.5,-196 1931.5,-124 2003.5,-124 2003.5,-196"/>
<text text-anchor="middle" x="1967.5" y="-156.9" font-family="Calibri" font-size="12.00">Other</text>
</g>
<!-- Procurement_frequency&#45;&gt;Other -->
<g id="edge19" class="edge">
<title>Procurement_frequency&#45;&gt;Other</title>
<path fill="none" stroke="black" d="M1807.58,-280C1874.03,-280 1967.5,-280 1967.5,-280 1967.5,-280 1967.5,-231.35 1967.5,-196"/>
</g>
<!-- Minimum_bid_size -->
<g id="node23" class="node">
<title>Minimum_bid_size</title>
<polygon fill="#7fdbff" stroke="black" points="2125.5,-196 2021.5,-196 2021.5,-124 2125.5,-124 2125.5,-196"/>
<text text-anchor="middle" x="2073.5" y="-156.9" font-family="Calibri" font-size="12.00">Minimum bid size</text>
</g>
<!-- Bid_properties&#45;&gt;Minimum_bid_size -->
<g id="edge22" class="edge">
<title>Bid_properties&#45;&gt;Minimum_bid_size</title>
<path fill="none" stroke="black" d="M2073.5,-231.74C2073.5,-220.34 2073.5,-207.76 2073.5,-196.35"/>
</g>
<!-- Bid_structure -->
<g id="node25" class="node">
<title>Bid_structure</title>
<polygon fill="#7fdbff" stroke="black" points="2228,-196 2149,-196 2149,-124 2228,-124 2228,-196"/>
<text text-anchor="middle" x="2188.5" y="-156.9" font-family="Calibri" font-size="12.00">Bid structure</text>
</g>
<!-- Bid_properties&#45;&gt;Bid_structure -->
<g id="edge25" class="edge">
<title>Bid_properties&#45;&gt;Bid_structure</title>
<path fill="none" stroke="black" d="M2116.32,-268C2149.02,-268 2188.5,-268 2188.5,-268 2188.5,-268 2188.5,-227.64 2188.5,-196.26"/>
</g>
<!-- Minimum_bid_size_value -->
<g id="node24" class="node">
<title>Minimum_bid_size_value</title>
<polygon fill="#dddddd" stroke="black" points="2134,-88 2001,-88 2001,-16 2134,-16 2134,-88"/>
<text text-anchor="middle" x="2067.5" y="-48.9" font-family="Calibri" font-size="12.00">Minimum bid size value</text>
</g>
<!-- Minimum_bid_size&#45;&gt;Minimum_bid_size_value -->
<g id="edge21" class="edge">
<title>Minimum_bid_size&#45;&gt;Minimum_bid_size_value</title>
<path fill="none" stroke="black" d="M2073.5,-123.74C2073.5,-112.34 2073.5,-99.76 2073.5,-88.35"/>
</g>
<!-- Simple -->
<g id="node26" class="node">
<title>Simple</title>
<polygon fill="#dddddd" stroke="black" points="2224.5,-88 2152.5,-88 2152.5,-16 2224.5,-16 2224.5,-88"/>
<text text-anchor="middle" x="2188.5" y="-48.9" font-family="Calibri" font-size="12.00">Simple</text>
</g>
<!-- Bid_structure&#45;&gt;Simple -->
<g id="edge23" class="edge">
<title>Bid_structure&#45;&gt;Simple</title>
<path fill="none" stroke="black" d="M2188.5,-123.74C2188.5,-112.34 2188.5,-99.76 2188.5,-88.35"/>
</g>
<!-- Complex -->
<g id="node27" class="node">
<title>Complex</title>
<polygon fill="#dddddd" stroke="black" points="2314.5,-88 2242.5,-88 2242.5,-16 2314.5,-16 2314.5,-88"/>
<text text-anchor="middle" x="2278.5" y="-48.9" font-family="Calibri" font-size="12.00">Complex</text>
</g>
<!-- Bid_structure&#45;&gt;Complex -->
<g id="edge24" class="edge">
<title>Bid_structure&#45;&gt;Complex</title>
<path fill="none" stroke="black" d="M2228.24,-160C2252.35,-160 2278.5,-160 2278.5,-160 2278.5,-160 2278.5,-119.64 2278.5,-88.26"/>
</g>
<!-- Legend_Root -->
<g id="node28" class="node">
<title>Legend_Root</title>
<polygon fill="#001f3f" stroke="black" points="2409.5,-412 2337.5,-412 2337.5,-340 2409.5,-340 2409.5,-412"/>
<text text-anchor="middle" x="2373.5" y="-372.9" font-family="Calibri" font-size="12.00" fill="white">Root</text>
</g>
<!-- Legend_Child -->
<g id="node29" class="node">
<title>Legend_Child</title>
<polygon fill="#0074d9" stroke="black" points="2409.5,-304 2337.5,-304 2337.5,-232 2409.5,-232 2409.5,-304"/>
<text text-anchor="middle" x="2373.5" y="-264.9" font-family="Calibri" font-size="12.00" fill="white">Child</text>
</g>
<!-- Legend_Root&#45;&gt;Legend_Child -->
<!-- Legend_SubChild -->
<g id="node30" class="node">
<title>Legend_SubChild</title>
<polygon fill="#7fdbff" stroke="black" points="2409.5,-196 2337.5,-196 2337.5,-124 2409.5,-124 2409.5,-196"/>
<text text-anchor="middle" x="2373.5" y="-156.9" font-family="Calibri" font-size="12.00">Sub&#45;child</text>
</g>
<!-- Legend_Child&#45;&gt;Legend_SubChild -->
<!-- Legend_SubSubChild -->
<g id="node31" class="node">
<title>Legend_SubSubChild</title>
<polygon fill="#dddddd" stroke="black" points="2414,-88 2333,-88 2333,-16 2414,-16 2414,-88"/>
<text text-anchor="middle" x="2373.5" y="-48.9" font-family="Calibri" font-size="12.00">Sub&#45;sub&#45;child</text>
</g>
<!-- Legend_SubChild&#45;&gt;Legend_SubSubChild -->
</g>
</svg>
