<?xml version="1.0" encoding="UTF-8" standalone="no"?>
<!DOCTYPE svg PUBLIC "-//W3C//DTD SVG 1.1//EN"
 "http://www.w3.org/Graphics/SVG/1.1/DTD/svg11.dtd">
<!-- Generated by graphviz version 2.50.0 (0)
 -->
<!-- Title: Market Operation Pages: 1 -->
<svg width="720pt" height="459pt"
 viewBox="0.00 0.00 720.00 458.92" xmlns="http://www.w3.org/2000/svg" xmlns:xlink="http://www.w3.org/1999/xlink">
<g id="graph0" class="graph" transform="scale(0.9 0.9) rotate(0) translate(4 504)">
<title>Market Operation</title>
<polygon fill="white" stroke="transparent" points="-4,4 -4,-504 793,-504 793,4 -4,4"/>
<g id="clust1" class="cluster">
<title>cluster_legend</title>
<polygon fill="none" stroke="black" points="693,-8 693,-484 781,-484 781,-8 693,-8"/>
<text text-anchor="middle" x="737" y="-464" font-family="Times New Roman,serif" font-size="20.00">Legend</text>
</g>
<!-- root -->
<g id="node1" class="node">
<title>root</title>
<polygon fill="#0b5394" stroke="black" points="376,-500 232,-500 232,-356 376,-356 376,-500"/>
<text text-anchor="middle" x="304" y="-424.3" font-family="Calibri" font-size="14.00" fill="white">Market operation</text>
</g>
<!-- child1 -->
<g id="node2" class="node">
<title>child1</title>
<polygon fill="#6fa8dc" stroke="black" points="85.5,-278.5 0.5,-278.5 0.5,-242.5 85.5,-242.5 85.5,-278.5"/>
<text text-anchor="middle" x="43" y="-263.9" font-family="Calibri" font-size="12.00" fill="white">Remuneration</text>
<text text-anchor="middle" x="43" y="-250.9" font-family="Calibri" font-size="12.00" fill="white">scheme</text>
</g>
<!-- root&#45;&gt;child1 -->
<g id="edge1" class="edge">
<title>root&#45;&gt;child1</title>
<path fill="none" stroke="black" d="M231.99,-428C154.74,-428 43,-428 43,-428 43,-428 43,-288.74 43,-288.74"/>
<polygon fill="black" stroke="black" points="46.5,-288.74 43,-278.74 39.5,-288.74 46.5,-288.74"/>
</g>
<!-- child2 -->
<g id="node3" class="node">
<title>child2</title>
<polygon fill="#6fa8dc" stroke="black" points="220,-284 122,-284 122,-237 220,-237 220,-284"/>
<text text-anchor="middle" x="171" y="-270.4" font-family="Calibri" font-size="12.00" fill="white">Remuneration of</text>
<text text-anchor="middle" x="171" y="-257.4" font-family="Calibri" font-size="12.00" fill="white">the product</text>
<text text-anchor="middle" x="171" y="-244.4" font-family="Calibri" font-size="12.00" fill="white">attribute</text>
</g>
<!-- root&#45;&gt;child2 -->
<g id="edge2" class="edge">
<title>root&#45;&gt;child2</title>
<path fill="none" stroke="black" d="M244,-355.78C244,-310.24 244,-260 244,-260 244,-260 230.1,-260 230.1,-260"/>
<polygon fill="black" stroke="black" points="230.1,-256.5 220.1,-260 230.1,-263.5 230.1,-256.5"/>
</g>
<!-- child3 -->
<g id="node4" class="node">
<title>child3</title>
<polygon fill="#6fa8dc" stroke="black" points="352,-278.5 256,-278.5 256,-242.5 352,-242.5 352,-278.5"/>
<text text-anchor="middle" x="304" y="-263.9" font-family="Calibri" font-size="12.00" fill="white">Market&#45;clearing</text>
<text text-anchor="middle" x="304" y="-250.9" font-family="Calibri" font-size="12.00" fill="white">type</text>
</g>
<!-- root&#45;&gt;child3 -->
<g id="edge3" class="edge">
<title>root&#45;&gt;child3</title>
<path fill="none" stroke="black" d="M304,-355.99C304,-355.99 304,-288.74 304,-288.74"/>
<polygon fill="black" stroke="black" points="307.5,-288.74 304,-278.74 300.5,-288.74 307.5,-288.74"/>
</g>
<!-- child4 -->
<g id="node5" class="node">
<title>child4</title>
<polygon fill="#6fa8dc" stroke="black" points="467.5,-278.5 388.5,-278.5 388.5,-242.5 467.5,-242.5 467.5,-278.5"/>
<text text-anchor="middle" x="428" y="-263.9" font-family="Calibri" font-size="12.00" fill="white">Procurement</text>
<text text-anchor="middle" x="428" y="-250.9" font-family="Calibri" font-size="12.00" fill="white">frequency</text>
</g>
<!-- root&#45;&gt;child4 -->
<g id="edge4" class="edge">
<title>root&#45;&gt;child4</title>
<path fill="none" stroke="black" d="M364,-355.78C364,-310.24 364,-260 364,-260 364,-260 378.2,-260 378.2,-260"/>
<polygon fill="black" stroke="black" points="378.2,-263.5 388.2,-260 378.2,-256.5 378.2,-263.5"/>
</g>
<!-- child5 -->
<g id="node6" class="node">
<title>child5</title>
<polygon fill="#6fa8dc" stroke="black" points="588.5,-278.5 503.5,-278.5 503.5,-242.5 588.5,-242.5 588.5,-278.5"/>
<text text-anchor="middle" x="546" y="-257.4" font-family="Calibri" font-size="12.00" fill="white">Bid properties</text>
</g>
<!-- root&#45;&gt;child5 -->
<g id="edge5" class="edge">
<title>root&#45;&gt;child5</title>
<path fill="none" stroke="black" d="M376.28,-383C447.59,-383 546,-383 546,-383 546,-383 546,-288.58 546,-288.58"/>
<polygon fill="black" stroke="black" points="549.5,-288.58 546,-278.58 542.5,-288.58 549.5,-288.58"/>
</g>
<!-- subchild1 -->
<g id="node7" class="node">
<title>subchild1</title>
<polygon fill="#d9d9d9" stroke="black" points="86,-165 0,-165 0,-124 86,-124 86,-165"/>
<text text-anchor="middle" x="43" y="-153" font-family="Calibri" font-size="10.00">No remuneration</text>
<text text-anchor="middle" x="43" y="-142" font-family="Calibri" font-size="10.00">Negotiated price</text>
<text text-anchor="middle" x="43" y="-131" font-family="Calibri" font-size="10.00">Pay&#45;as&#45;bid</text>
</g>
<!-- child1&#45;&gt;subchild1 -->
<g id="edge6" class="edge">
<title>child1&#45;&gt;subchild1</title>
<path fill="none" stroke="black" d="M43,-242.38C43,-242.38 43,-175.24 43,-175.24"/>
<polygon fill="black" stroke="black" points="46.5,-175.24 43,-165.24 39.5,-175.24 46.5,-175.24"/>
</g>
<!-- subchild2 -->
<g id="node8" class="node">
<title>subchild2</title>
<polygon fill="#d9d9d9" stroke="black" points="200.5,-162.5 141.5,-162.5 141.5,-126.5 200.5,-126.5 200.5,-162.5"/>
<text text-anchor="middle" x="171" y="-147.5" font-family="Calibri" font-size="10.00">Availability</text>
<text text-anchor="middle" x="171" y="-136.5" font-family="Calibri" font-size="10.00">Activation</text>
</g>
<!-- child2&#45;&gt;subchild2 -->
<g id="edge7" class="edge">
<title>child2&#45;&gt;subchild2</title>
<path fill="none" stroke="black" d="M171,-236.75C171,-236.75 171,-172.53 171,-172.53"/>
<polygon fill="black" stroke="black" points="174.5,-172.53 171,-162.53 167.5,-172.53 174.5,-172.53"/>
</g>
<!-- subchild3 -->
<g id="node9" class="node">
<title>subchild3</title>
<polygon fill="#d9d9d9" stroke="black" points="335,-162.5 273,-162.5 273,-126.5 335,-126.5 335,-162.5"/>
<text text-anchor="middle" x="304" y="-142" font-family="Calibri" font-size="10.00">Continuous</text>
</g>
<!-- child3&#45;&gt;subchild3 -->
<g id="edge8" class="edge">
<title>child3&#45;&gt;subchild3</title>
<path fill="none" stroke="black" d="M304,-242.38C304,-242.38 304,-172.88 304,-172.88"/>
<polygon fill="black" stroke="black" points="307.5,-172.88 304,-162.88 300.5,-172.88 307.5,-172.88"/>
</g>
<!-- subchild4 -->
<g id="node10" class="node">
<title>subchild4</title>
<polygon fill="#d9d9d9" stroke="black" points="461,-165 395,-165 395,-124 461,-124 461,-165"/>
<text text-anchor="middle" x="428" y="-153" font-family="Calibri" font-size="10.00">Event&#45;based</text>
<text text-anchor="middle" x="428" y="-142" font-family="Calibri" font-size="10.00">on SO call</text>
<text text-anchor="middle" x="428" y="-131" font-family="Calibri" font-size="10.00">Daily</text>
</g>
<!-- child4&#45;&gt;subchild4 -->
<g id="edge9" class="edge">
<title>child4&#45;&gt;subchild4</title>
<path fill="none" stroke="black" d="M428,-242.38C428,-242.38 428,-175.24 428,-175.24"/>
<polygon fill="black" stroke="black" points="431.5,-175.24 428,-165.24 424.5,-175.24 431.5,-175.24"/>
</g>
<!-- subchild5 -->
<g id="node11" class="node">
<title>subchild5</title>
<polygon fill="#d9d9d9" stroke="black" points="574.5,-162.5 503.5,-162.5 503.5,-126.5 574.5,-126.5 574.5,-162.5"/>
<text text-anchor="middle" x="539" y="-147.5" font-family="Calibri" font-size="10.00">Minimum bid</text>
<text text-anchor="middle" x="539" y="-136.5" font-family="Calibri" font-size="10.00">size</text>
</g>
<!-- child5&#45;&gt;subchild5 -->
<g id="edge10" class="edge">
<title>child5&#45;&gt;subchild5</title>
<path fill="none" stroke="black" d="M539,-242.38C539,-242.38 539,-172.88 539,-172.88"/>
<polygon fill="black" stroke="black" points="542.5,-172.88 539,-162.88 535.5,-172.88 542.5,-172.88"/>
</g>
<!-- subchild6 -->
<g id="node12" class="node">
<title>subchild6</title>
<polygon fill="#d9d9d9" stroke="black" points="665,-162.5 611,-162.5 611,-126.5 665,-126.5 665,-162.5"/>
<text text-anchor="middle" x="638" y="-147.5" font-family="Calibri" font-size="10.00">Simple</text>
<text text-anchor="middle" x="638" y="-136.5" font-family="Calibri" font-size="10.00">Complex</text>
</g>
<!-- child5&#45;&gt;subchild6 -->
<g id="edge11" class="edge">
<title>child5&#45;&gt;subchild6</title>
<path fill="none" stroke="black" d="M581.5,-242.3C581.5,-209.53 581.5,-144 581.5,-144 581.5,-144 600.74,-144 600.74,-144"/>
<polygon fill="black" stroke="black" points="600.74,-147.5 610.74,-144 600.74,-140.5 600.74,-147.5"/>
</g>
<!-- Legend_Root -->
<g id="node13" class="node">
<title>Legend_Root</title>
<polygon fill="#0b5394" stroke="black" points="764,-446 710,-446 710,-410 764,-410 764,-446"/>
<text text-anchor="middle" x="737" y="-424.9" font-family="Calibri" font-size="12.00" fill="white">Pillar</text>
</g>
<!-- Legend_Child -->
<g id="node14" class="node">
<title>Legend_Child</title>
<polygon fill="#6fa8dc" stroke="black" points="764,-278.5 710,-278.5 710,-242.5 764,-242.5 764,-278.5"/>
<text text-anchor="middle" x="737" y="-257.4" font-family="Calibri" font-size="12.00" fill="white">Feature</text>
</g>
<!-- Legend_Root&#45;&gt;Legend_Child -->
<!-- Legend_SubChild -->
<g id="node15" class="node">
<title>Legend_SubChild</title>
<polygon fill="#b6d7a8" stroke="black" points="773,-162.5 701,-162.5 701,-126.5 773,-126.5 773,-162.5"/>
<text text-anchor="middle" x="737" y="-141.4" font-family="Calibri" font-size="12.00">Sub&#45;feature</text>
</g>
<!-- Legend_Child&#45;&gt;Legend_SubChild -->
<!-- Legend_Options -->
<g id="node16" class="node">
<title>Legend_Options</title>
<polygon fill="#d9d9d9" stroke="black" points="764,-52 710,-52 710,-16 764,-16 764,-52"/>
<text text-anchor="middle" x="737" y="-30.9" font-family="Calibri" font-size="12.00">Options</text>
</g>
<!-- Legend_SubChild&#45;&gt;Legend_Options -->
</g>
</svg>
