<?xml version="1.0" encoding="UTF-8" standalone="no"?>
<!DOCTYPE svg PUBLIC "-//W3C//DTD SVG 1.1//EN"
 "http://www.w3.org/Graphics/SVG/1.1/DTD/svg11.dtd">
<!-- Generated by graphviz version 2.50.0 (0)
 -->
<!-- Pages: 1 -->
<svg width="2429pt" height="500pt"
 viewBox="0.00 0.00 2428.50 500.00" xmlns="http://www.w3.org/2000/svg" xmlns:xlink="http://www.w3.org/1999/xlink">
<g id="graph0" class="graph" transform="scale(1 1) rotate(0) translate(4 496)">
<polygon fill="white" stroke="transparent" points="-4,4 -4,-496 2424.5,-496 2424.5,4 -4,4"/>
<text text-anchor="middle" x="1210.25" y="-468.8" font-family="Calibri" font-size="24.00">market_operation_tree</text>
<g id="clust1" class="cluster">
<title>cluster_legend</title>
<polygon fill="none" stroke="black" points="2324.5,-8 2324.5,-450 2412.5,-450 2412.5,-8 2324.5,-8"/>
<text text-anchor="middle" x="2368.5" y="-430" font-family="Calibri" font-size="20.00">Legend</text>
</g>
<!-- Root -->
<g id="node1" class="node">
<title>Root</title>
<polygon fill="#001f3f" stroke="black" points="1467.5,-412 1365.5,-412 1365.5,-340 1467.5,-340 1467.5,-412"/>
<text text-anchor="middle" x="1416.5" y="-372.9" font-family="Calibri" font-size="12.00" fill="white">Market operation</text>
</g>
<!-- Remuneration_scheme -->
<g id="node2" class="node">
<title>Remuneration_scheme</title>
<polygon fill="#0074d9" stroke="black" points="446,-304 321,-304 321,-232 446,-232 446,-304"/>
<text text-anchor="middle" x="383.5" y="-264.9" font-family="Calibri" font-size="12.00" fill="white">Remuneration scheme</text>
</g>
<!-- Root&#45;&gt;Remuneration_scheme -->
<g id="edge1" class="edge">
<title>Root&#45;&gt;Remuneration_scheme</title>
<path fill="none" stroke="black" d="M1365.27,-369.74C1192.97,-352.06 634.63,-294.77 446.24,-275.44"/>
</g>
<!-- Remuneration_of_product_attribute -->
<g id="node9" class="node">
<title>Remuneration_of_product_attribute</title>
<polygon fill="#0074d9" stroke="black" points="1193.5,-304 991.5,-304 991.5,-232 1193.5,-232 1193.5,-304"/>
<text text-anchor="middle" x="1092.5" y="-264.9" font-family="Calibri" font-size="12.00" fill="white">Remuneration of the product attribute</text>
</g>
<!-- Root&#45;&gt;Remuneration_of_product_attribute -->
<g id="edge8" class="edge">
<title>Root&#45;&gt;Remuneration_of_product_attribute</title>
<path fill="none" stroke="black" d="M1365.16,-358.2C1319.21,-343.17 1250.52,-320.7 1193.57,-302.07"/>
</g>
<!-- Market_clearing_type -->
<g id="node13" class="node">
<title>Market_clearing_type</title>
<polygon fill="#0074d9" stroke="black" points="1476.5,-304 1356.5,-304 1356.5,-232 1476.5,-232 1476.5,-304"/>
<text text-anchor="middle" x="1416.5" y="-264.9" font-family="Calibri" font-size="12.00" fill="white">Market&#45;clearing type</text>
</g>
<!-- Root&#45;&gt;Market_clearing_type -->
<g id="edge12" class="edge">
<title>Root&#45;&gt;Market_clearing_type</title>
<path fill="none" stroke="black" d="M1416.5,-340C1416.5,-328.54 1416.5,-315.81 1416.5,-304.33"/>
</g>
<!-- Procurement_frequency -->
<g id="node16" class="node">
<title>Procurement_frequency</title>
<polygon fill="#0074d9" stroke="black" points="1807.5,-304 1677.5,-304 1677.5,-232 1807.5,-232 1807.5,-304"/>
<text text-anchor="middle" x="1742.5" y="-264.9" font-family="Calibri" font-size="12.00" fill="white">Procurement frequency</text>
</g>
<!-- Root&#45;&gt;Procurement_frequency -->
<g id="edge15" class="edge">
<title>Root&#45;&gt;Procurement_frequency</title>
<path fill="none" stroke="black" d="M1467.8,-358.32C1524.46,-339.9 1615.82,-310.19 1677.46,-290.15"/>
</g>
<!-- Bid_properties -->
<g id="node22" class="node">
<title>Bid_properties</title>
<polygon fill="#0074d9" stroke="black" points="2116,-304 2031,-304 2031,-232 2116,-232 2116,-304"/>
<text text-anchor="middle" x="2073.5" y="-264.9" font-family="Calibri" font-size="12.00" fill="white">Bid properties</text>
</g>
<!-- Root&#45;&gt;Bid_properties -->
<g id="edge21" class="edge">
<title>Root&#45;&gt;Bid_properties</title>
<path fill="none" stroke="black" d="M1467.51,-366.77C1592.93,-346.54 1914.59,-294.64 2030.8,-275.89"/>
</g>
<!-- No_remuneration -->
<g id="node3" class="node">
<title>No_remuneration</title>
<polygon fill="#7fdbff" stroke="black" points="99,-196 0,-196 0,-124 99,-124 99,-196"/>
<text text-anchor="middle" x="49.5" y="-156.9" font-family="Calibri" font-size="12.00">No remuneration</text>
</g>
<!-- Remuneration_scheme&#45;&gt;No_remuneration -->
<g id="edge2" class="edge">
<title>Remuneration_scheme&#45;&gt;No_remuneration</title>
<path fill="none" stroke="black" d="M320.99,-256.11C264.17,-244.99 178.73,-225.2 108.5,-196 105.42,-194.72 102.31,-193.3 99.21,-191.79"/>
</g>
<!-- Negotiated_price -->
<g id="node4" class="node">
<title>Negotiated_price</title>
<polygon fill="#7fdbff" stroke="black" points="215.5,-196 117.5,-196 117.5,-124 215.5,-124 215.5,-196"/>
<text text-anchor="middle" x="166.5" y="-156.9" font-family="Calibri" font-size="12.00">Negotiated price</text>
</g>
<!-- Remuneration_scheme&#45;&gt;Negotiated_price -->
<g id="edge3" class="edge">
<title>Remuneration_scheme&#45;&gt;Negotiated_price</title>
<path fill="none" stroke="black" d="M320.74,-241.09C291.14,-228.34 255.58,-212.24 224.5,-196 221.58,-194.48 218.61,-192.87 215.62,-191.21"/>
</g>
<!-- Pay_as_bid -->
<g id="node5" class="node">
<title>Pay_as_bid</title>
<polygon fill="#7fdbff" stroke="black" points="305.5,-196 233.5,-196 233.5,-124 305.5,-124 305.5,-196"/>
<text text-anchor="middle" x="269.5" y="-156.9" font-family="Calibri" font-size="12.00">Pay&#45;as&#45;bid</text>
</g>
<!-- Remuneration_scheme&#45;&gt;Pay_as_bid -->
<g id="edge4" class="edge">
<title>Remuneration_scheme&#45;&gt;Pay_as_bid</title>
<path fill="none" stroke="black" d="M345.86,-232C332.89,-219.94 318.4,-206.47 305.56,-194.53"/>
</g>
<!-- Uniform_pay_as_clear -->
<g id="node6" class="node">
<title>Uniform_pay_as_clear</title>
<polygon fill="#7fdbff" stroke="black" points="443,-196 324,-196 324,-124 443,-124 443,-196"/>
<text text-anchor="middle" x="383.5" y="-156.9" font-family="Calibri" font-size="12.00">Uniform pay&#45;as&#45;clear</text>
</g>
<!-- Remuneration_scheme&#45;&gt;Uniform_pay_as_clear -->
<g id="edge5" class="edge">
<title>Remuneration_scheme&#45;&gt;Uniform_pay_as_clear</title>
<path fill="none" stroke="black" d="M383.5,-232C383.5,-220.54 383.5,-207.81 383.5,-196.33"/>
</g>
<!-- Non_uniform_pay_as_clear -->
<g id="node7" class="node">
<title>Non_uniform_pay_as_clear</title>
<polygon fill="#7fdbff" stroke="black" points="697.5,-196 461.5,-196 461.5,-124 697.5,-124 697.5,-196"/>
<text text-anchor="middle" x="579.5" y="-156.9" font-family="Calibri" font-size="12.00">Non&#45;uniform pay&#45;as&#45;clear (i.e., nodal pricing)</text>
</g>
<!-- Remuneration_scheme&#45;&gt;Non_uniform_pay_as_clear -->
<g id="edge6" class="edge">
<title>Remuneration_scheme&#45;&gt;Non_uniform_pay_as_clear</title>
<path fill="none" stroke="black" d="M446.05,-233.17C467.9,-221.35 492.46,-208.07 514.5,-196.15"/>
</g>
<!-- Cost_based_remuneration -->
<g id="node8" class="node">
<title>Cost_based_remuneration</title>
<polygon fill="#7fdbff" stroke="black" points="855,-196 716,-196 716,-124 855,-124 855,-196"/>
<text text-anchor="middle" x="785.5" y="-156.9" font-family="Calibri" font-size="12.00">Cost&#45;based remuneration</text>
</g>
<!-- Remuneration_scheme&#45;&gt;Cost_based_remuneration -->
<g id="edge7" class="edge">
<title>Remuneration_scheme&#45;&gt;Cost_based_remuneration</title>
<path fill="none" stroke="black" d="M446.11,-257.08C511.92,-245.77 617.98,-225.01 706.5,-196 709.49,-195.02 712.53,-193.96 715.58,-192.85"/>
</g>
<!-- Availability -->
<g id="node10" class="node">
<title>Availability</title>
<polygon fill="#7fdbff" stroke="black" points="945.5,-196 873.5,-196 873.5,-124 945.5,-124 945.5,-196"/>
<text text-anchor="middle" x="909.5" y="-156.9" font-family="Calibri" font-size="12.00">Availability</text>
</g>
<!-- Remuneration_of_product_attribute&#45;&gt;Availability -->
<g id="edge9" class="edge">
<title>Remuneration_of_product_attribute&#45;&gt;Availability</title>
<path fill="none" stroke="black" d="M1018.03,-231.88C997.04,-221.13 974.49,-208.76 954.5,-196 951.58,-194.14 948.62,-192.13 945.68,-190.05"/>
</g>
<!-- Activation -->
<g id="node11" class="node">
<title>Activation</title>
<polygon fill="#7fdbff" stroke="black" points="1035.5,-196 963.5,-196 963.5,-124 1035.5,-124 1035.5,-196"/>
<text text-anchor="middle" x="999.5" y="-156.9" font-family="Calibri" font-size="12.00">Activation</text>
</g>
<!-- Remuneration_of_product_attribute&#45;&gt;Activation -->
<g id="edge10" class="edge">
<title>Remuneration_of_product_attribute&#45;&gt;Activation</title>
<path fill="none" stroke="black" d="M1061.79,-232C1051.74,-220.54 1040.57,-207.81 1030.49,-196.33"/>
</g>
<!-- Availability_and_Activation -->
<g id="node12" class="node">
<title>Availability_and_Activation</title>
<polygon fill="#7fdbff" stroke="black" points="1317.5,-196 1053.5,-196 1053.5,-124 1317.5,-124 1317.5,-196"/>
<text text-anchor="middle" x="1185.5" y="-163.4" font-family="Calibri" font-size="12.00">Availability and Activation</text>
<text text-anchor="middle" x="1185.5" y="-150.4" font-family="Calibri" font-size="12.00">For: Active power, Reactive power, Apparent power</text>
</g>
<!-- Remuneration_of_product_attribute&#45;&gt;Availability_and_Activation -->
<g id="edge11" class="edge">
<title>Remuneration_of_product_attribute&#45;&gt;Availability_and_Activation</title>
<path fill="none" stroke="black" d="M1123.21,-232C1133.26,-220.54 1144.43,-207.81 1154.51,-196.33"/>
</g>
<!-- Continuous -->
<g id="node14" class="node">
<title>Continuous</title>
<polygon fill="#7fdbff" stroke="black" points="1407.5,-196 1335.5,-196 1335.5,-124 1407.5,-124 1407.5,-196"/>
<text text-anchor="middle" x="1371.5" y="-156.9" font-family="Calibri" font-size="12.00">Continuous</text>
</g>
<!-- Market_clearing_type&#45;&gt;Continuous -->
<g id="edge13" class="edge">
<title>Market_clearing_type&#45;&gt;Continuous</title>
<path fill="none" stroke="black" d="M1401.64,-232C1396.78,-220.54 1391.37,-207.81 1386.5,-196.33"/>
</g>
<!-- Discrete -->
<g id="node15" class="node">
<title>Discrete</title>
<polygon fill="#7fdbff" stroke="black" points="1497.5,-196 1425.5,-196 1425.5,-124 1497.5,-124 1497.5,-196"/>
<text text-anchor="middle" x="1461.5" y="-156.9" font-family="Calibri" font-size="12.00">Discrete</text>
</g>
<!-- Market_clearing_type&#45;&gt;Discrete -->
<g id="edge14" class="edge">
<title>Market_clearing_type&#45;&gt;Discrete</title>
<path fill="none" stroke="black" d="M1431.36,-232C1436.22,-220.54 1441.63,-207.81 1446.5,-196.33"/>
</g>
<!-- Event_based_on_SO_call -->
<g id="node17" class="node">
<title>Event_based_on_SO_call</title>
<polygon fill="#7fdbff" stroke="black" points="1643,-196 1516,-196 1516,-124 1643,-124 1643,-196"/>
<text text-anchor="middle" x="1579.5" y="-156.9" font-family="Calibri" font-size="12.00">Event&#45;based on SO call</text>
</g>
<!-- Procurement_frequency&#45;&gt;Event_based_on_SO_call -->
<g id="edge16" class="edge">
<title>Procurement_frequency&#45;&gt;Event_based_on_SO_call</title>
<path fill="none" stroke="black" d="M1688.68,-232C1670.96,-220.48 1651.27,-207.68 1633.55,-196.15"/>
</g>
<!-- Daily -->
<g id="node18" class="node">
<title>Daily</title>
<polygon fill="#7fdbff" stroke="black" points="1733.5,-196 1661.5,-196 1661.5,-124 1733.5,-124 1733.5,-196"/>
<text text-anchor="middle" x="1697.5" y="-156.9" font-family="Calibri" font-size="12.00">Daily</text>
</g>
<!-- Procurement_frequency&#45;&gt;Daily -->
<g id="edge17" class="edge">
<title>Procurement_frequency&#45;&gt;Daily</title>
<path fill="none" stroke="black" d="M1727.64,-232C1722.78,-220.54 1717.37,-207.81 1712.5,-196.33"/>
</g>
<!-- Weekly -->
<g id="node19" class="node">
<title>Weekly</title>
<polygon fill="#7fdbff" stroke="black" points="1823.5,-196 1751.5,-196 1751.5,-124 1823.5,-124 1823.5,-196"/>
<text text-anchor="middle" x="1787.5" y="-156.9" font-family="Calibri" font-size="12.00">Weekly</text>
</g>
<!-- Procurement_frequency&#45;&gt;Weekly -->
<g id="edge18" class="edge">
<title>Procurement_frequency&#45;&gt;Weekly</title>
<path fill="none" stroke="black" d="M1757.36,-232C1762.22,-220.54 1767.63,-207.81 1772.5,-196.33"/>
</g>
<!-- Monthly -->
<g id="node20" class="node">
<title>Monthly</title>
<polygon fill="#7fdbff" stroke="black" points="1913.5,-196 1841.5,-196 1841.5,-124 1913.5,-124 1913.5,-196"/>
<text text-anchor="middle" x="1877.5" y="-156.9" font-family="Calibri" font-size="12.00">Monthly</text>
</g>
<!-- Procurement_frequency&#45;&gt;Monthly -->
<g id="edge19" class="edge">
<title>Procurement_frequency&#45;&gt;Monthly</title>
<path fill="none" stroke="black" d="M1787.08,-232C1804.59,-218.25 1824.44,-202.67 1841.06,-189.61"/>
</g>
<!-- Other -->
<g id="node21" class="node">
<title>Other</title>
<polygon fill="#7fdbff" stroke="black" points="2003.5,-196 1931.5,-196 1931.5,-124 2003.5,-124 2003.5,-196"/>
<text text-anchor="middle" x="1967.5" y="-156.9" font-family="Calibri" font-size="12.00">Other</text>
</g>
<!-- Procurement_frequency&#45;&gt;Other -->
<g id="edge20" class="edge">
<title>Procurement_frequency&#45;&gt;Other</title>
<path fill="none" stroke="black" d="M1807.86,-246.3C1842.95,-233.94 1886.32,-216.64 1922.5,-196 1925.42,-194.33 1928.36,-192.49 1931.26,-190.55"/>
</g>
<!-- Minimum_bid_size -->
<g id="node23" class="node">
<title>Minimum_bid_size</title>
<polygon fill="#7fdbff" stroke="black" points="2125.5,-196 2021.5,-196 2021.5,-124 2125.5,-124 2125.5,-196"/>
<text text-anchor="middle" x="2073.5" y="-156.9" font-family="Calibri" font-size="12.00">Minimum bid size</text>
</g>
<!-- Bid_properties&#45;&gt;Minimum_bid_size -->
<g id="edge22" class="edge">
<title>Bid_properties&#45;&gt;Minimum_bid_size</title>
<path fill="none" stroke="black" d="M2073.5,-232C2073.5,-220.54 2073.5,-207.81 2073.5,-196.33"/>
</g>
<!-- Bid_structure -->
<g id="node25" class="node">
<title>Bid_structure</title>
<polygon fill="#7fdbff" stroke="black" points="2228,-196 2149,-196 2149,-124 2228,-124 2228,-196"/>
<text text-anchor="middle" x="2188.5" y="-156.9" font-family="Calibri" font-size="12.00">Bid structure</text>
</g>
<!-- Bid_properties&#45;&gt;Bid_structure -->
<g id="edge24" class="edge">
<title>Bid_properties&#45;&gt;Bid_structure</title>
<path fill="none" stroke="black" d="M2111.47,-232C2123.9,-220.54 2137.72,-207.81 2150.17,-196.33"/>
</g>
<!-- Minimum_bid_size_value -->
<g id="node24" class="node">
<title>Minimum_bid_size_value</title>
<polygon fill="#dddddd" stroke="black" points="2134,-88 2001,-88 2001,-16 2134,-16 2134,-88"/>
<text text-anchor="middle" x="2067.5" y="-48.9" font-family="Calibri" font-size="12.00">Minimum bid size value</text>
</g>
<!-- Minimum_bid_size&#45;&gt;Minimum_bid_size_value -->
<g id="edge23" class="edge">
<title>Minimum_bid_size&#45;&gt;Minimum_bid_size_value</title>
<path fill="none" stroke="black" d="M2071.52,-124C2070.87,-112.54 2070.15,-99.81 2069.5,-88.33"/>
</g>
<!-- Simple -->
<g id="node26" class="node">
<title>Simple</title>
<polygon fill="#dddddd" stroke="black" points="2224.5,-88 2152.5,-88 2152.5,-16 2224.5,-16 2224.5,-88"/>
<text text-anchor="middle" x="2188.5" y="-48.9" font-family="Calibri" font-size="12.00">Simple</text>
</g>
<!-- Bid_structure&#45;&gt;Simple -->
<g id="edge25" class="edge">
<title>Bid_structure&#45;&gt;Simple</title>
<path fill="none" stroke="black" d="M2188.5,-124C2188.5,-112.54 2188.5,-99.81 2188.5,-88.33"/>
</g>
<!-- Complex -->
<g id="node27" class="node">
<title>Complex</title>
<polygon fill="#dddddd" stroke="black" points="2314.5,-88 2242.5,-88 2242.5,-16 2314.5,-16 2314.5,-88"/>
<text text-anchor="middle" x="2278.5" y="-48.9" font-family="Calibri" font-size="12.00">Complex</text>
</g>
<!-- Bid_structure&#45;&gt;Complex -->
<g id="edge26" class="edge">
<title>Bid_structure&#45;&gt;Complex</title>
<path fill="none" stroke="black" d="M2218.22,-124C2227.95,-112.54 2238.76,-99.81 2248.5,-88.33"/>
</g>
<!-- Legend_Pillar -->
<g id="node28" class="node">
<title>Legend_Pillar</title>
<polygon fill="#001f3f" stroke="black" points="2404.5,-412 2332.5,-412 2332.5,-340 2404.5,-340 2404.5,-412"/>
<text text-anchor="middle" x="2368.5" y="-372.9" font-family="Calibri" font-size="12.00" fill="white">Pillar</text>
</g>
<!-- Legend_Feature -->
<g id="node29" class="node">
<title>Legend_Feature</title>
<polygon fill="#0074d9" stroke="black" points="2404.5,-304 2332.5,-304 2332.5,-232 2404.5,-232 2404.5,-304"/>
<text text-anchor="middle" x="2368.5" y="-264.9" font-family="Calibri" font-size="12.00" fill="white">Feature</text>
</g>
<!-- Legend_Pillar&#45;&gt;Legend_Feature -->
<!-- Legend_SubFeature -->
<g id="node30" class="node">
<title>Legend_SubFeature</title>
<polygon fill="#7fdbff" stroke="black" points="2404.5,-196 2332.5,-196 2332.5,-124 2404.5,-124 2404.5,-196"/>
<text text-anchor="middle" x="2368.5" y="-156.9" font-family="Calibri" font-size="12.00">Sub&#45;feature</text>
</g>
<!-- Legend_Feature&#45;&gt;Legend_SubFeature -->
<!-- Legend_Options -->
<g id="node31" class="node">
<title>Legend_Options</title>
<polygon fill="#dddddd" stroke="black" points="2404.5,-88 2332.5,-88 2332.5,-16 2404.5,-16 2404.5,-88"/>
<text text-anchor="middle" x="2368.5" y="-48.9" font-family="Calibri" font-size="12.00">Options</text>
</g>
<!-- Legend_SubFeature&#45;&gt;Legend_Options -->
</g>
</svg>
