<?xml version="1.0" encoding="UTF-8" standalone="no"?>
<!DOCTYPE svg PUBLIC "-//W3C//DTD SVG 1.1//EN"
 "http://www.w3.org/Graphics/SVG/1.1/DTD/svg11.dtd">
<!-- Generated by graphviz version 2.50.0 (0)
 -->
<!-- Pages: 1 -->
<svg width="374pt" height="500pt"
 viewBox="0.00 0.00 374.00 500.00" xmlns="http://www.w3.org/2000/svg" xmlns:xlink="http://www.w3.org/1999/xlink">
<g id="graph0" class="graph" transform="scale(1 1) rotate(0) translate(4 496)">
<polygon fill="white" stroke="transparent" points="-4,4 -4,-496 370,-496 370,4 -4,4"/>
<text text-anchor="middle" x="183" y="-468.8" font-family="Calibri" font-size="24.00">my_tree_diagram2</text>
<g id="clust1" class="cluster">
<title>cluster_legend</title>
<polygon fill="none" stroke="black" points="260,-8 260,-450 358,-450 358,-8 260,-8"/>
<text text-anchor="middle" x="309" y="-430" font-family="Calibri" font-size="20.00">Legend</text>
</g>
<!-- Root -->
<g id="node1" class="node">
<title>Root</title>
<polygon fill="#001f3f" stroke="black" points="207,-412 135,-412 135,-340 207,-340 207,-412"/>
<text text-anchor="middle" x="171" y="-372.9" font-family="Calibri" font-size="12.00" fill="white">Root</text>
</g>
<!-- Child 1 -->
<g id="node2" class="node">
<title>Child 1</title>
<polygon fill="#0074d9" stroke="black" points="162,-304 90,-304 90,-232 162,-232 162,-304"/>
<text text-anchor="middle" x="126" y="-264.9" font-family="Calibri" font-size="12.00" fill="white">Child 1</text>
</g>
<!-- Root&#45;&gt;Child 1 -->
<g id="edge3" class="edge">
<title>Root&#45;&gt;Child 1</title>
<path fill="none" stroke="black" d="M156.14,-340C151.28,-328.54 145.87,-315.81 141,-304.33"/>
</g>
<!-- Child 2 -->
<g id="node5" class="node">
<title>Child 2</title>
<polygon fill="#0074d9" stroke="black" points="252,-304 180,-304 180,-232 252,-232 252,-304"/>
<text text-anchor="middle" x="216" y="-264.9" font-family="Calibri" font-size="12.00" fill="white">Child 2</text>
</g>
<!-- Root&#45;&gt;Child 2 -->
<g id="edge5" class="edge">
<title>Root&#45;&gt;Child 2</title>
<path fill="none" stroke="black" d="M185.86,-340C190.72,-328.54 196.13,-315.81 201,-304.33"/>
</g>
<!-- Sub&#45;child A -->
<g id="node3" class="node">
<title>Sub&#45;child A</title>
<polygon fill="#7fdbff" stroke="black" points="72,-196 0,-196 0,-124 72,-124 72,-196"/>
<text text-anchor="middle" x="36" y="-156.9" font-family="Calibri" font-size="12.00">Sub&#45;child A</text>
</g>
<!-- Child 1&#45;&gt;Sub&#45;child A -->
<g id="edge1" class="edge">
<title>Child 1&#45;&gt;Sub&#45;child A</title>
<path fill="none" stroke="black" d="M96.28,-232C86.55,-220.54 75.74,-207.81 66,-196.33"/>
</g>
<!-- Sub&#45;child B -->
<g id="node4" class="node">
<title>Sub&#45;child B</title>
<polygon fill="#7fdbff" stroke="black" points="162,-196 90,-196 90,-124 162,-124 162,-196"/>
<text text-anchor="middle" x="126" y="-156.9" font-family="Calibri" font-size="12.00">Sub&#45;child B</text>
</g>
<!-- Child 1&#45;&gt;Sub&#45;child B -->
<g id="edge2" class="edge">
<title>Child 1&#45;&gt;Sub&#45;child B</title>
<path fill="none" stroke="black" d="M126,-232C126,-220.54 126,-207.81 126,-196.33"/>
</g>
<!-- Sub&#45;child C -->
<g id="node6" class="node">
<title>Sub&#45;child C</title>
<polygon fill="#7fdbff" stroke="black" points="252,-196 180,-196 180,-124 252,-124 252,-196"/>
<text text-anchor="middle" x="216" y="-156.9" font-family="Calibri" font-size="12.00">Sub&#45;child C</text>
</g>
<!-- Child 2&#45;&gt;Sub&#45;child C -->
<g id="edge4" class="edge">
<title>Child 2&#45;&gt;Sub&#45;child C</title>
<path fill="none" stroke="black" d="M216,-232C216,-220.54 216,-207.81 216,-196.33"/>
</g>
<!-- Legend_Root -->
<g id="node7" class="node">
<title>Legend_Root</title>
<polygon fill="#001f3f" stroke="black" points="345,-412 273,-412 273,-340 345,-340 345,-412"/>
<text text-anchor="middle" x="309" y="-372.9" font-family="Calibri" font-size="12.00" fill="white">Root</text>
</g>
<!-- Legend_Child -->
<g id="node8" class="node">
<title>Legend_Child</title>
<polygon fill="#0074d9" stroke="black" points="345,-304 273,-304 273,-232 345,-232 345,-304"/>
<text text-anchor="middle" x="309" y="-264.9" font-family="Calibri" font-size="12.00" fill="white">Child</text>
</g>
<!-- Legend_Root&#45;&gt;Legend_Child -->
<!-- Legend_SubChild -->
<g id="node9" class="node">
<title>Legend_SubChild</title>
<polygon fill="#7fdbff" stroke="black" points="345,-196 273,-196 273,-124 345,-124 345,-196"/>
<text text-anchor="middle" x="309" y="-156.9" font-family="Calibri" font-size="12.00">Sub&#45;child</text>
</g>
<!-- Legend_Child&#45;&gt;Legend_SubChild -->
<!-- Legend_SubSubChild -->
<g id="node10" class="node">
<title>Legend_SubSubChild</title>
<polygon fill="#dddddd" stroke="black" points="349.5,-88 268.5,-88 268.5,-16 349.5,-16 349.5,-88"/>
<text text-anchor="middle" x="309" y="-48.9" font-family="Calibri" font-size="12.00">Sub&#45;sub&#45;child</text>
</g>
<!-- Legend_SubChild&#45;&gt;Legend_SubSubChild -->
</g>
</svg>
